<?xml version="1.0" encoding="utf-8"?>
<!-- Generator: Adobe Illustrator 25.0.0, SVG Export Plug-In . SVG Version: 6.00 Build 0)  -->
<svg version="1.1" id="Capa_1" xmlns="http://www.w3.org/2000/svg" xmlns:xlink="http://www.w3.org/1999/xlink" x="0px" y="0px"
	 viewBox="0 0 40 40" style="enable-background:new 0 0 40 40;" xml:space="preserve">
<style type="text/css">
	.st0{fill-rule:evenodd;clip-rule:evenodd;fill:#FFA5A5;}
</style>
<path id="logo" class="st0" d="M31.7,1.9c-0.2-0.4-0.7-0.5-1.1-0.3l-14,7.9c-0.3,0.2-0.5,0.5-0.4,0.9l4.7,22.5c0,0.1,0,0.1,0,0.2
	l-0.6,0.7c-1.1,1.3-2.2,2.1-4.1,2.1c-2.2,0-3.1-1.1-4.7-3.1c-1.8-2.4-4.2-5.2-10-5.2H1.4c-0.8,0-1.4,0.6-1.4,1.3s0.6,1.3,1.4,1.3
	h0.1c4.3,0,5.9,2.1,7.7,4.2c1.5,1.9,3.3,4.1,6.9,4.1c3.1,0,4.8-1.4,6.2-3l5.1-5.6l12.1-13.4c0.2-0.3,0.3-0.6,0.1-0.9L31.7,1.9z"/>
</svg>
